<?xml version="1.0" encoding="UTF-8" standalone="no"?>
<svg
   xmlns:dc="http://purl.org/dc/elements/1.1/"
   xmlns:cc="http://creativecommons.org/ns#"
   xmlns:rdf="http://www.w3.org/1999/02/22-rdf-syntax-ns#"
   xmlns:svg="http://www.w3.org/2000/svg"
   xmlns="http://www.w3.org/2000/svg"
   viewBox="0 0 1785.6133 369.76401"
   height="369.76401"
   width="1785.6133"
   xml:space="preserve"
   version="1.1"
   id="svg2"><metadata
     id="metadata8"><rdf:RDF><cc:Work
         rdf:about=""><dc:format>image/svg+xml</dc:format><dc:type
           rdf:resource="http://purl.org/dc/dcmitype/StillImage" /></cc:Work></rdf:RDF></metadata><defs
     id="defs6"><clipPath
       id="clipPath16"
       clipPathUnits="userSpaceOnUse"><path
         id="path18"
         d="m 0,277.323 1339.214,0 L 1339.214,0 0,0 0,277.323 Z" /></clipPath></defs><g
     transform="matrix(1.3333333,0,0,-1.3333333,0,369.764)"
     id="g10"><g
       id="g12"><g
         clip-path="url(#clipPath16)"
         id="g14"><g
           transform="translate(92.6924,247.2051)"
           id="g20"><path
             id="path22"
             style="fill:#27aae2;fill-opacity:1;fill-rule:nonzero;stroke:none"
             d="m 0,0 2.159,0 c 31.897,0 56.531,-10.887 73.933,-32.662 -0.326,0 -12.076,-7.877 -35.203,-23.705 l -0.373,0 c -8.439,16.564 -25.877,22.365 -52.297,17.437 -26.426,-4.939 -39.497,-22.517 -39.243,-52.742 1.17,-27.687 15.43,-44.002 42.742,-48.941 27.288,-4.916 45.336,1.457 54.118,19.205 l 0.373,0 32.435,-23.574 c -16.98,-24.047 -43.057,-36.086 -78.259,-36.086 -41.04,0 -69.65,17.31 -85.845,51.902 -4.819,13.01 -7.232,25.883 -7.232,38.635 0,34.609 14.017,60.685 42.047,78.226 C -35.691,-4.088 -18.82,0 0,0" /></g><g
           transform="translate(214.125,111.7422)"
           id="g24"><path
             id="path26"
             style="fill:#27aae2;fill-opacity:1;fill-rule:nonzero;stroke:none"
             d="m 0,0 c 0,-8.127 7.04,-13.006 21.13,-14.723 l 6.448,0 c 12.251,0 20.31,4.016 24.206,12.039 0.41,1.604 0.622,3.334 0.622,5.192 l 0,11.256 -29.743,0 C 11.424,13.764 4.428,11.455 1.641,6.822 0.543,4.879 0,2.582 0,0 m 31.644,85.416 c 26.172,0 43.091,-8.547 50.776,-25.695 2.6,-7.504 3.921,-14.627 3.921,-21.377 l 0,-39.002 c 0,-17.903 -10.508,-31.354 -31.535,-40.389 -9.114,-3.041 -18.161,-4.558 -27.228,-4.558 -31.571,0 -51.343,9.914 -59.348,29.748 -1.441,4.625 -2.171,9.035 -2.171,13.173 l 0,3.668 c 0,16.393 7.841,27.397 23.561,33.059 8.849,2.637 19.048,3.939 30.618,3.939 l 31.546,0 c 0.41,0 0.622,0.194 0.622,0.639 0,12.469 -8.777,18.705 -26.33,18.705 l -3.667,0 c -14.434,0 -26.402,-2.267 -35.86,-6.808 l 0,28.843 c 11.172,4.065 26.185,6.055 45.095,6.055" /></g><g
           transform="translate(309.3271,66.1367)"
           id="g28"><path
             id="path30"
             style="fill:#27aae2;fill-opacity:1;fill-rule:nonzero;stroke:none"
             d="m 0,0 0,61.041 c 0,15.623 3.848,29.182 11.532,40.738 13.246,18.61 32.754,27.873 58.474,27.873 17.492,0 32.131,-4.119 43.942,-12.406 C 131.512,103.83 140.3,85.723 140.3,62.934 l 0,-62.682 -37.873,0 0,62.043 c 0,4.742 -0.839,9.748 -2.534,15.074 C 93.831,90.627 84.5,97.238 71.923,97.238 l -2.527,0 c -9.795,0 -17.939,-4.054 -24.423,-12.16 -4.499,-7.842 -6.719,-15.133 -6.719,-21.871 l 0.229,-62.955 -2.527,0 C 34.864,0.252 22.873,0.154 0,0" /></g><g
           transform="translate(496.0972,133.7832)"
           id="g32"><path
             id="path34"
             style="fill:#27aae2;fill-opacity:1;fill-rule:nonzero;stroke:none"
             d="m 0,0 c 0,-14.459 5.267,-25.1 15.828,-31.941 4.712,-2.543 9.663,-3.799 14.808,-3.799 l 2.515,0 c 12.329,0 21.492,6.556 27.494,19.635 1.683,5.228 2.533,10.168 2.533,14.82 l 0,1.906 c 0,14.76 -5.995,25.393 -17.987,31.908 -5.072,1.823 -9.494,2.756 -13.282,2.756 C 16.871,35.285 6.732,27.529 1.515,12.002 0.507,6.604 0,2.586 0,0 m 60.898,113.924 39.51,0 0,-115.854 c 0,-22.47 -8.657,-40.277 -25.974,-53.402 -11.558,-8.227 -25.944,-12.314 -43.188,-12.314 -25.31,0 -44.455,9.16 -57.466,27.466 -7.601,11.426 -11.388,24.785 -11.388,40.18 0,24.971 10.073,44.123 30.261,57.441 11.389,6.344 24.146,9.493 38.225,9.493 l 1.272,0 c 10.798,0 20.382,-2.635 28.748,-7.961 l 0,54.951 z" /></g><g
           transform="translate(607.126,195.0352)"
           id="g36"><path
             id="path38"
             style="fill:#27aae2;fill-opacity:1;fill-rule:nonzero;stroke:none"
             d="m 0,0 39.382,0 0,-128.768 -38.869,-0.13 L 0,-39.256 0,0 Z m 33.99,41.855 c 4.102,-4.017 6.164,-8.884 6.164,-14.626 0,-5.67 -2.062,-10.526 -6.164,-14.581 -4.101,-4.039 -9.042,-6.08 -14.88,-6.08 -5.731,0 -10.659,2.041 -14.736,6.08 -4.108,4.055 -6.135,8.911 -6.135,14.581 0,5.742 2.027,10.609 6.135,14.626 4.077,4.006 9.005,6.008 14.736,6.008 5.838,0 10.779,-2.002 14.88,-6.008" /></g><g
           transform="translate(693.0923,99.6484)"
           id="g40"><path
             id="path42"
             style="fill:#5b5b5f;fill-opacity:1;fill-rule:nonzero;stroke:none"
             d="m 0,0 21.902,0 c 13.669,0 24.532,5.959 32.542,17.865 4.988,7.922 7.479,17.813 7.479,29.612 0,17.443 -5.573,30.576 -16.725,39.519 -6.902,5.225 -15.057,7.842 -24.43,7.842 L -0.108,94.73 0,0 Z m -37.096,127.76 66.483,0 c 15.612,0 29.195,-4.336 40.764,-13.035 C 88.711,99.863 98,77.871 98,48.773 98,28.977 93.868,12.48 85.605,-0.875 72.178,-20.732 54.083,-30.635 31.282,-30.635 l -68.131,0 -0.247,158.395 z" /></g><g
           transform="translate(833.9014,102.8145)"
           id="g44"><path
             id="path46"
             style="fill:#5b5b5f;fill-opacity:1;fill-rule:nonzero;stroke:none"
             d="m 0,0 c 0,-8.096 7.033,-12.986 21.135,-14.662 l 6.448,0 c 12.256,0 20.316,3.992 24.199,12.019 0.405,1.6 0.634,3.336 0.634,5.17 l 0,11.28 -29.761,0 C 11.423,13.807 4.421,11.498 1.64,6.859 0.536,4.893 0,2.637 0,0 m 31.647,85.471 c 26.161,0 43.094,-8.571 50.777,-25.707 2.618,-7.516 3.91,-14.639 3.91,-21.412 l 0,-38.967 c 0,-17.897 -10.489,-31.354 -31.511,-40.401 -9.12,-3.023 -18.186,-4.55 -27.24,-4.55 -31.553,0 -51.349,9.929 -59.373,29.752 -1.423,4.625 -2.157,9.041 -2.157,13.171 l 0,3.676 c 0,16.375 7.852,27.395 23.559,33.03 8.849,2.623 19.079,3.931 30.636,3.931 l 31.534,0 c 0.405,0 0.634,0.207 0.634,0.635 0,12.478 -8.789,18.728 -26.342,18.728 l -3.666,0 c -14.44,0 -26.378,-2.269 -35.843,-6.822 l 0,28.881 c 11.141,4.018 26.155,6.055 45.082,6.055" /></g><g
           transform="translate(966.5898,192.0859)"
           id="g48"><path
             id="path50"
             style="fill:#5b5b5f;fill-opacity:1;fill-rule:nonzero;stroke:none"
             d="m 0,0 50.378,0 0,-37.488 -51.018,0 0,-0.254 0.64,0 0,-30.526 c 0,-4.627 0.827,-9.591 2.526,-14.929 6.008,-13.078 15.208,-19.627 27.604,-19.627 l 2.526,0 c 3.312,0 6.954,0.638 11.021,1.916 13.179,5.984 19.761,17.615 19.761,34.957 l 37.717,0 c 0,-13.266 -2.529,-24.918 -7.588,-34.957 -12.589,-22.619 -33.092,-33.93 -61.52,-33.93 -17.312,0 -31.818,4.127 -43.58,12.408 -17.305,13.159 -25.937,30.998 -25.937,53.541 l 0,116.487 37.47,0 L 0,0 Z" /></g><g
           transform="translate(1123.4551,24.6035)"
           id="g52"><path
             id="path54"
             style="fill:#27aae2;fill-opacity:1;fill-rule:nonzero;stroke:none"
             d="M 0,0 C 0,0 0.345,-0.416 0,0" /></g><g
           transform="translate(1318.834,180.5664)"
           id="g56"><path
             id="path58"
             style="fill:#5b5b5f;fill-opacity:1;fill-rule:nonzero;stroke:none"
             d="m 0,0 0,-28.49 c -9.289,4.39 -21.113,6.568 -35.444,6.568 l -3.68,0 c -17.396,0 -26.087,-6.144 -26.087,-18.498 0,-0.393 0.218,-0.609 0.62,-0.609 l 31.281,0 c 11.408,0 21.522,-1.309 30.383,-3.922 15.537,-5.598 23.307,-16.485 23.307,-32.801 l 0,-3.541 c 0,-4.041 -0.717,-8.391 -2.152,-13.053 -7.926,-19.638 -27.567,-29.472 -58.884,-29.472 -6.333,0 -13.39,0.912 -21.255,2.769 -6.263,1.858 -10.985,3.897 -14.175,6.08 -5.659,2.36 -11.328,7.528 -16.969,15.455 -3.136,5.309 -4.981,10.453 -5.597,15.44 l 0,0.267 34.96,0 c 5.158,-6.263 12.83,-9.392 23.036,-9.392 l 6.46,0 c 13.933,1.695 20.889,6.539 20.889,14.586 0,2.599 -0.507,4.861 -1.514,6.699 -2.782,4.627 -9.736,6.969 -20.894,6.969 l -63.19,0 0,24.289 c 0,6.773 1.321,13.844 3.933,21.281 7.606,16.967 24.385,25.453 50.396,25.453 C -25.836,6.078 -10.997,4.076 0,0" /></g><g
           transform="translate(1105.5938,238.1152)"
           id="g60"><path
             id="path62"
             style="fill:#27aae2;fill-opacity:1;fill-rule:nonzero;stroke:none"
             d="M 0,0 C 0.121,21.752 17.843,39.292 39.582,39.207 61.333,39.099 78.921,21.389 78.813,-0.338 78.704,-22.107 61.006,-39.684 39.243,-39.574 17.486,-39.473 -0.066,-21.764 0,0 m 68.885,-116.203 c 0,-9.59 -2.636,-17.662 -7.95,-24.17 -5.838,-6.502 -13.054,-9.736 -21.68,-9.736 l -2.014,0 c -3.872,0 -7.841,0.839 -11.9,2.515 -11.812,6.176 -17.722,16.655 -17.722,31.391 0,3.992 0.525,8.045 1.509,12.178 4.975,15.025 14.723,22.546 29.253,22.546 4.465,0 8.946,-1.001 13.422,-3.021 11.399,-6.008 17.082,-16.418 17.082,-31.145 l 0,-0.558 z m -29.738,68.84 c -38.318,0.177 -69.51,-30.729 -69.679,-69.037 -0.12,-33.827 27.606,-71.709 48.393,-97.112 l 20.472,-24.603 20.683,24.426 c 21.002,25.224 49.05,62.869 49.22,96.695 0.158,38.308 -30.767,69.48 -69.089,69.631" /></g></g></g></g></svg>