<?xml version="1.0" encoding="UTF-8" standalone="no"?>
<svg width="201px" height="42px" viewBox="0 0 201 42" version="1.1" xmlns="http://www.w3.org/2000/svg" xmlns:xlink="http://www.w3.org/1999/xlink" xmlns:sketch="http://www.bohemiancoding.com/sketch/ns">
    <!-- Generator: Sketch 3.3.2 (12043) - http://www.bohemiancoding.com/sketch -->
    <title>Imported Layers</title>
    <desc>Created with Sketch.</desc>
    <defs></defs>
    <g id="Page-1" stroke="none" stroke-width="1" fill="none" fill-rule="evenodd" sketch:type="MSPage">
        <g id="Imported-Layers" sketch:type="MSLayerGroup">
            <path d="M14.0217,4.63631655 L14.34555,4.63631655 C19.1301,4.63631655 22.8252,6.28096403 25.4355,9.57086331 C25.38675,9.57086331 23.62425,10.7609137 20.1552,13.1521942 L20.0991,13.1521942 C18.8334,10.6495683 16.2177,9.77330935 12.25455,10.5176763 C8.2908,11.2640072 6.33015,13.9196763 6.36825,18.4858921 C6.54375,22.6689712 8.6826,25.1336763 12.7794,25.8800072 C16.8726,26.6227122 19.5798,25.6598849 20.89725,22.9785324 L20.9532,22.9785324 L25.8183,26.5400719 C23.2713,30.1730719 19.35975,31.9919137 14.0796,31.9919137 C7.92345,31.9919137 3.6321,29.3765827 1.2027,24.1504532 C0.47985,22.1850647 0.1179,20.240223 0.1179,18.3136619 C0.1179,13.0848129 2.2206,9.14527338 6.4251,6.49519424 C8.6682,5.25377698 11.19885,4.63631655 14.0217,4.63631655" id="Fill-1" fill="#27AAE2" sketch:type="MSShapeGroup"></path>
            <path d="M36.98325,12.197223 C40.90905,12.197223 43.4469,13.4884964 44.59965,16.0793525 C44.98965,17.2130504 45.1878,18.2891871 45.1878,19.3089712 L45.1878,25.2013597 C45.1878,27.9059784 43.6116,29.9381439 40.45755,31.3031439 C39.09045,31.7625755 37.7334,31.9919137 36.37335,31.9919137 C31.6377,31.9919137 28.6719,30.4941151 27.4713,27.4976115 C27.255,26.7988705 27.1455,26.1326115 27.1455,25.507295 L27.1455,24.9531367 C27.1455,22.4764964 28.32165,20.8140216 30.67965,19.9586115 C32.007,19.5603669 33.53685,19.3635108 35.27235,19.3635108 L40.00425,19.3635108 C40.06575,19.3635108 40.09755,19.3343525 40.09755,19.2669712 C40.09755,17.3831655 38.781,16.441036 36.14805,16.441036 L35.598,16.441036 C33.4329,16.441036 31.6377,16.7836835 30.219,17.4697338 L30.219,13.1120072 C31.8948,12.4980216 34.14675,12.197223 36.98325,12.197223 L36.98325,12.197223 Z M32.23665,25.1017986 C32.23665,26.3296187 33.29265,27.0667338 35.40615,27.3261367 L36.37335,27.3261367 C38.211,27.3261367 39.41985,26.7194029 40.00425,25.507295 C40.06575,25.2651151 40.09755,25.0035971 40.09755,24.7230432 L40.09755,23.0224964 L35.6361,23.0224964 C33.95025,23.0224964 32.90085,23.3711871 32.4828,24.0711367 C32.3181,24.3646835 32.23665,24.7117122 32.23665,25.1017986 L32.23665,25.1017986 Z" id="Fill-2" fill="#27AAE2" sketch:type="MSShapeGroup"></path>
            <path d="M46.51695,31.9919137 L46.51695,22.7698921 C46.51695,20.4095827 47.09415,18.3611007 48.24675,16.6152302 C50.2338,13.8036475 53.15985,12.4042014 57.01785,12.4042014 C59.64165,12.4042014 61.8375,13.0264964 63.60915,14.2784892 C66.24375,16.3053669 67.5621,19.0409568 67.5621,22.4838993 L67.5621,31.9538417 L61.881,31.9538417 L61.881,22.5804388 C61.881,21.8640216 61.75515,21.1077194 61.5009,20.3030719 C60.5916,18.3000647 59.19195,17.3012806 57.30555,17.3012806 L56.92635,17.3012806 C55.4571,17.3012806 54.2355,17.9137554 53.2629,19.1384029 C52.58805,20.3230144 52.25505,21.4245324 52.25505,22.4426547 L52.28955,31.9538417 L51.91035,31.9538417 C51.74655,31.9538417 49.9479,31.9686475 46.51695,31.9919137" id="Fill-3" fill="#27AAE2" sketch:type="MSShapeGroup"></path>
            <path d="M83.66715,4.56032374 L89.59365,4.56032374 L89.59365,22.063446 C89.59365,25.4583453 88.2951,28.1484604 85.69755,30.1313741 C83.964,31.3743022 81.80595,31.9919137 79.21935,31.9919137 C75.42285,31.9919137 72.5511,30.6080288 70.59945,27.842223 C69.45945,26.1159928 68.89125,24.0977266 68.89125,21.7718633 C68.89125,17.9994173 70.4022,15.1057986 73.43055,13.0937266 C75.13875,12.1352806 77.05245,11.6596835 79.16415,11.6596835 L79.35495,11.6596835 C80.97465,11.6596835 82.41225,12.0576259 83.66715,12.8624245 L83.66715,4.56032374 L83.66715,4.56032374 Z M74.53245,21.7718633 C74.53245,23.9563165 75.3225,25.5639496 76.90665,26.5976331 C77.61345,26.9818273 78.3561,27.1715827 79.12785,27.1715827 L79.50525,27.1715827 C81.3546,27.1715827 82.7289,26.1809568 83.6292,24.2051439 C83.88165,23.4151511 84.00915,22.6689712 84.00915,21.966 L84.00915,21.6780432 C84.00915,19.4482662 83.1099,17.8418417 81.31125,16.8574101 C80.5503,16.5821439 79.887,16.441036 79.3188,16.441036 C77.0631,16.441036 75.54225,17.6128058 74.7597,19.9586115 C74.60865,20.7742878 74.53245,21.3811727 74.53245,21.7718633 L74.53245,21.7718633 Z" id="Fill-4" fill="#27AAE2" sketch:type="MSShapeGroup"></path>
            <path d="M96.2853,6.19454676 C96.9006,6.80143165 97.2099,7.53688489 97.2099,8.40438129 C97.2099,9.261 96.9006,9.99448921 96.2853,10.6071151 C95.67015,11.2173237 94.929,11.5256763 94.0533,11.5256763 C93.19365,11.5256763 92.45445,11.2173237 91.8429,10.6071151 C91.2267,9.99448921 90.92265,9.261 90.92265,8.40438129 C90.92265,7.53688489 91.2267,6.80143165 91.8429,6.19454676 C92.45445,5.58932374 93.19365,5.28686331 94.0533,5.28686331 C94.929,5.28686331 95.67015,5.58932374 96.2853,6.19454676 L96.2853,6.19454676 Z M91.1868,12.517964 L97.0941,12.517964 L97.0941,31.9721223 L91.26375,31.9919137 L91.1868,18.4487266 L91.1868,12.517964 L91.1868,12.517964 Z" id="Fill-5" fill="#27AAE2" sketch:type="MSShapeGroup"></path>
            <path d="M98.51745,7.62707914 L108.4899,7.62707914 C110.83155,7.62707914 112.869,8.28215827 114.60435,9.59639568 C117.3885,11.8417338 118.78185,15.1642662 118.78185,19.5603669 C118.78185,22.5512806 118.1619,25.043482 116.92245,27.0611439 C114.90855,30.0612734 112.19415,31.557259 108.774,31.557259 L98.5545,31.557259 L98.51745,7.62707914 L98.51745,7.62707914 Z M104.0817,26.9289496 L107.36715,26.9289496 C109.41735,26.9289496 111.0468,26.0286691 112.2483,24.2299209 C112.9965,23.0330719 113.3703,21.5387482 113.3703,19.7563165 C113.3703,17.1208921 112.5342,15.1367698 110.8614,13.7856691 C109.82625,12.9962806 108.60285,12.6009065 107.1969,12.6009065 L104.0655,12.617223 L104.0817,26.9289496 L104.0817,26.9289496 Z" id="Fill-6" fill="#FFFFFF" sketch:type="MSShapeGroup"></path>
            <path d="M129.95025,13.5377482 C133.87425,13.5377482 136.41435,14.8326475 137.56665,17.4216906 C137.95935,18.5570504 138.15315,19.6331871 138.15315,20.6565971 L138.15315,26.5435468 C138.15315,29.2474101 136.5798,31.280482 133.42665,32.647295 C132.05865,33.1040072 130.6986,33.334705 129.34065,33.334705 C124.6077,33.334705 121.6383,31.8346403 120.43455,28.8399496 C120.22125,28.1412086 120.111,27.4740432 120.111,26.8499353 L120.111,26.2945683 C120.111,23.8206475 121.28895,22.1557554 123.645,21.3045755 C124.9722,20.908295 126.50685,20.7105324 128.24025,20.7105324 L132.9705,20.7105324 C133.0311,20.7105324 133.06545,20.679259 133.06545,20.6145971 C133.06545,18.7294317 131.7471,17.7851871 129.1143,17.7851871 L128.5644,17.7851871 C126.39825,17.7851871 124.6077,18.1279856 123.18795,18.8158489 L123.18795,14.4525324 C124.8591,13.8454964 127.11105,13.5377482 129.95025,13.5377482 L129.95025,13.5377482 Z M125.2032,26.4506331 C125.2032,27.6737698 126.25815,28.4126978 128.3733,28.6657554 L129.34065,28.6657554 C131.1789,28.6657554 132.38805,28.0626475 132.9705,26.8499353 C133.0311,26.6082086 133.06545,26.3459353 133.06545,26.0688561 L133.06545,24.3646835 L128.60145,24.3646835 C126.9165,24.3646835 125.8662,24.7135252 125.44905,25.4143813 C125.2836,25.7114029 125.2032,26.0522374 125.2032,26.4506331 L125.2032,26.4506331 Z" id="Fill-7" fill="#FFFFFF" sketch:type="MSShapeGroup"></path>
            <path d="M145.1064,12.9636475 L152.6631,12.9636475 L152.6631,18.6273022 L145.0104,18.6273022 L145.0104,18.6656763 L145.1064,18.6656763 L145.1064,23.2773669 C145.1064,23.9764101 145.23045,24.726518 145.4853,25.5329784 C146.3865,27.5087914 147.7665,28.4982086 149.6259,28.4982086 L150.0048,28.4982086 C150.5016,28.4982086 151.0479,28.4016691 151.65795,28.208741 C153.6348,27.3046835 154.62195,25.547482 154.62195,22.9274676 L160.27965,22.9274676 C160.27965,24.9315324 159.9003,26.6920576 159.14145,28.208741 C157.2531,31.626 154.17765,33.334705 149.91345,33.334705 C147.31665,33.334705 145.14075,32.7113525 143.37645,31.4601151 C140.7807,29.4722158 139.4859,26.776964 139.4859,23.3711871 L139.4859,5.77258273 L145.1064,5.77258273 L145.1064,12.9636475" id="Fill-8" fill="#FFFFFF" sketch:type="MSShapeGroup"></path>
            <path id="Fill-9" fill="#27AAE2" sketch:type="MSShapeGroup" d="M168.63615,38.2666835 C168.63615,38.2666835 168.6879,38.3295324 168.63615,38.2666835"></path>
            <path d="M197.943,14.7039281 L197.943,19.0081727 C196.54965,18.3449353 194.77605,18.0158849 192.6264,18.0158849 L192.0744,18.0158849 C189.46515,18.0158849 188.16135,18.9442662 188.16135,20.8105468 C188.16135,20.8699209 188.19405,20.902554 188.25435,20.902554 L192.9465,20.902554 C194.6577,20.902554 196.1748,21.1003165 197.50395,21.4950863 C199.8345,22.3408273 201,23.9856259 201,26.4506331 L201,26.9856043 C201,27.5961151 200.89245,28.2533094 200.6772,28.9576403 C199.4883,31.9245324 196.54215,33.4102446 191.8446,33.4102446 C190.89465,33.4102446 189.8361,33.2724604 188.65635,32.9919065 C187.7169,32.7113525 187.0086,32.4033022 186.5301,32.0733453 C185.68125,31.7167986 184.8309,30.9361727 183.98475,29.7384173 C183.51435,28.9363381 183.2376,28.1591871 183.1452,27.4057554 L183.1452,27.3654173 L188.3892,27.3654173 C189.1629,28.3116259 190.3137,28.7843525 191.8446,28.7843525 L192.8136,28.7843525 C194.90355,28.5282734 195.94695,27.796446 195.94695,26.5807122 C195.94695,26.1880576 195.8709,25.8463165 195.71985,25.5686331 C195.3027,24.8695899 194.25945,24.5157626 192.58575,24.5157626 L183.10725,24.5157626 L183.10725,20.8462014 C183.10725,19.8229424 183.3054,18.7548129 183.6972,17.6310863 C184.8381,15.0677266 187.35495,13.7856691 191.2566,13.7856691 C194.0676,13.7856691 196.29345,14.0881295 197.943,14.7039281" id="Fill-10" fill="#FFFFFF" sketch:type="MSShapeGroup"></path>
            <path d="M171.82905,13.1651871 C166.08135,13.138295 161.40255,17.8075468 161.3772,23.5952374 C161.3592,28.7056403 165.5181,34.4289712 168.63615,38.2666835 L171.70695,41.9838345 L174.8094,38.2935755 C177.95955,34.4826043 182.1669,28.7953813 182.1924,23.6848273 C182.21595,17.8972878 177.57735,13.1878489 171.82905,13.1651871 L171.82905,13.1651871 Z M176.28975,23.5654748 C176.28975,25.0141727 175.89435,26.2338345 175.0971,27.2169065 C174.22155,28.199223 173.13915,28.687964 171.84525,28.687964 L171.54315,28.687964 C170.96235,28.687964 170.367,28.5610576 169.75815,28.3078489 C167.98635,27.3747842 167.09985,25.791777 167.09985,23.5654748 C167.09985,22.9622158 167.17845,22.3498921 167.3262,21.7256331 C168.0723,19.455518 169.5345,18.3192518 171.71415,18.3192518 C172.3839,18.3192518 173.05605,18.4706331 173.72745,18.7756619 C175.4373,19.6833453 176.28975,21.2560791 176.28975,23.4810216 L176.28975,23.5654748 L176.28975,23.5654748 Z M165.957,6.00947482 C165.97515,2.72320144 168.63345,0.0732733813 171.8943,0.0861151079 C175.15695,0.102582734 177.79515,2.77819424 177.77895,6.06053957 C177.7626,9.34953237 175.1079,12.0048993 171.84345,11.9884317 C168.5799,11.9730216 165.94695,9.29756115 165.957,6.00947482 L165.957,6.00947482 Z" id="Fill-11" fill="#27AAE2" sketch:type="MSShapeGroup"></path>
        </g>
    </g>
</svg>